<?xml version="1.0" encoding="UTF-8"?><svg id="a" xmlns="http://www.w3.org/2000/svg" viewBox="0 0 64 64"><path id="b" d="M32,63.4C14.7,63.4,.6,49.3,.6,32S14.7,.6,32,.6s31.4,14.1,31.4,31.4h0c0,17.3-14.1,31.4-31.4,31.4Zm0-59c-15.2,0-27.5,12.3-27.5,27.6s12.3,27.5,27.5,27.5,27.5-12.3,27.5-27.5S47.2,4.4,32,4.4Zm1,37.7c-7.5,.6-11.5-2.4-14.9-10.4l-3.9,.6c-.2,6.3,2.8,10.7,8,13.4,6.9,3.6,14.1,3.6,20.8-.7,4.6-2.9,7.3-8,7.1-13.4l-4.1-.4c-2,7.5-5.4,10.4-13,10.9h0Zm-4.3-20.1c0-2.7-2.1-4.8-4.8-4.8h-.2c-2.7,.1-4.7,2.3-4.7,4.8-.1,2.7,2,4.8,4.6,4.9h.3c2.6,.1,4.7-1.9,4.8-4.4v-.5h0Zm16.3,.4c0-2.7-2.1-4.8-4.8-4.8h-.2c-2.7,.1-4.7,2.3-4.7,4.8-.1,2.7,2,4.8,4.6,4.9h.3c2.6,.1,4.7-1.9,4.8-4.4v-.5h0Z"/></svg>