<?xml version="1.0" encoding="utf-8"?>
<!-- Generator: Adobe Illustrator 26.2.1, SVG Export Plug-In . SVG Version: 6.00 Build 0)  -->
<svg version="1.1" id="Layer_1" xmlns="http://www.w3.org/2000/svg" xmlns:xlink="http://www.w3.org/1999/xlink" x="0px" y="0px"
	 viewBox="0 0 64 64" style="enable-background:new 0 0 64 64;" xml:space="preserve">
<style type="text/css">
	.st0{fill:none;stroke:#000000;stroke-width:5;}
</style>
<g>
	<path id="Path_474_00000010290955143720987640000000762616698943152060_" d="M32,63.4C14.7,63.4,0.6,49.3,0.6,32S14.7,0.6,32,0.6
		S63.4,14.7,63.4,32l0,0C63.4,49.3,49.3,63.4,32,63.4z M32,4.4C16.8,4.4,4.5,16.7,4.5,32S16.8,59.5,32,59.5S59.5,47.2,59.5,32
		C59.5,16.7,47.2,4.4,32,4.4z M33,42.1c-7.5,0.6-11.5-2.4-14.9-10.4l-3.9,0.6c-0.2,6.3,2.8,10.7,8,13.4c6.9,3.6,14.1,3.6,20.8-0.7
		c4.6-2.9,7.3-8,7.1-13.4l-4.1-0.4C44,38.7,40.6,41.6,33,42.1L33,42.1z M28.7,22c0-2.7-2.1-4.8-4.8-4.8c-0.1,0-0.1,0-0.2,0
		c-2.7,0.1-4.7,2.3-4.7,4.8c-0.1,2.7,2,4.8,4.6,4.9c0.1,0,0.2,0,0.3,0c2.6,0.1,4.7-1.9,4.8-4.4C28.7,22.3,28.7,22.1,28.7,22L28.7,22
		z"/>
	<line id="Line_142" class="st0" x1="36.6" y1="22.4" x2="48.9" y2="22.4"/>
</g>
</svg>
